<svg width="277" height="205" viewBox="0 0 277 205" fill="none" xmlns="http://www.w3.org/2000/svg">
<g clip-path="url(#clip0_2_2)">
<path d="M84 64.85C84 31.235 109.65 9.5 138 9.5C165 9.5 189.57 29.21 191.798 60.125H207.458C210.495 60.125 211.98 63.77 209.82 65.8625L187.613 88.07C186.263 89.42 184.17 89.42 182.82 88.07L160.613 65.8625C160.15 65.3908 159.836 64.7937 159.71 64.1452C159.583 63.4968 159.65 62.8255 159.902 62.2146C160.153 61.6038 160.578 61.0801 161.125 60.7087C161.671 60.3372 162.314 60.1343 162.975 60.125H178.23C176.138 38.12 159.128 23 138 23C115.388 23 97.5 40.3475 97.5 64.85C97.5 80.645 110.663 101.57 138 126.545C142.32 122.562 146.303 118.715 149.948 115.002C148.76 112.659 148.136 110.07 148.125 107.442C148.125 102.967 149.903 98.6747 153.068 95.5101C156.232 92.3454 160.524 90.5675 165 90.5675C169.476 90.5675 173.768 92.3454 176.932 95.5101C180.097 98.6747 181.875 102.967 181.875 107.442C181.873 110.053 181.263 112.627 180.094 114.96C178.925 117.294 177.229 119.324 175.14 120.889C173.051 122.454 170.626 123.512 168.058 123.978C165.49 124.444 162.848 124.306 160.343 123.575C155.078 129.11 149.07 134.78 142.455 140.585C139.89 142.812 136.043 142.812 133.478 140.585C100.538 111.56 84 86.315 84 64.85Z" fill="#DA1212"/>
<path d="M37.552 170.12H30.128V166.6H49.136V170.12H41.712V189H37.552V170.12ZM55.2758 174.408C56.4278 172.616 58.4544 171.72 61.3558 171.72V175.528C61.0144 175.464 60.7051 175.432 60.4278 175.432C58.8704 175.432 57.6544 175.891 56.7798 176.808C55.9051 177.704 55.4678 179.005 55.4678 180.712V189H51.4678V171.912H55.2758V174.408ZM71.1833 171.72C73.7006 171.72 75.6206 172.328 76.9433 173.544C78.2873 174.739 78.9593 176.552 78.9593 178.984V189H75.1833V186.92C74.6926 187.667 73.9886 188.243 73.0713 188.648C72.1753 189.032 71.0873 189.224 69.8073 189.224C68.5273 189.224 67.4073 189.011 66.4473 188.584C65.4873 188.136 64.7406 187.528 64.2073 186.76C63.6953 185.971 63.4393 185.085 63.4393 184.104C63.4393 182.568 64.0046 181.341 65.1353 180.424C66.2873 179.485 68.0899 179.016 70.5433 179.016H74.9593V178.76C74.9593 177.565 74.5966 176.648 73.8713 176.008C73.1673 175.368 72.1113 175.048 70.7033 175.048C69.7433 175.048 68.7939 175.197 67.8553 175.496C66.9379 175.795 66.1593 176.211 65.5193 176.744L63.9513 173.832C64.8473 173.149 65.9246 172.627 67.1833 172.264C68.4419 171.901 69.7753 171.72 71.1833 171.72ZM70.6393 186.312C71.6419 186.312 72.5273 186.088 73.2953 185.64C74.0846 185.171 74.6393 184.509 74.9593 183.656V181.672H70.8313C68.5273 181.672 67.3753 182.429 67.3753 183.944C67.3753 184.669 67.6633 185.245 68.2393 185.672C68.8153 186.099 69.6153 186.312 70.6393 186.312ZM99.7803 171.912L92.4523 189H88.3243L80.9962 171.912H85.1562L90.4683 184.584L95.9403 171.912H99.7803ZM117.876 180.552C117.876 180.829 117.854 181.224 117.812 181.736H104.404C104.638 182.995 105.246 183.997 106.228 184.744C107.23 185.469 108.468 185.832 109.94 185.832C111.817 185.832 113.364 185.213 114.58 183.976L116.724 186.44C115.956 187.357 114.985 188.051 113.812 188.52C112.638 188.989 111.316 189.224 109.844 189.224C107.966 189.224 106.313 188.851 104.884 188.104C103.454 187.357 102.345 186.323 101.556 185C100.788 183.656 100.404 182.141 100.404 180.456C100.404 178.792 100.777 177.299 101.524 175.976C102.292 174.632 103.348 173.587 104.692 172.84C106.036 172.093 107.55 171.72 109.236 171.72C110.9 171.72 112.382 172.093 113.684 172.84C115.006 173.565 116.03 174.6 116.756 175.944C117.502 177.267 117.876 178.803 117.876 180.552ZM109.236 174.92C107.956 174.92 106.868 175.304 105.972 176.072C105.097 176.819 104.564 177.821 104.372 179.08H114.068C113.897 177.843 113.374 176.84 112.5 176.072C111.625 175.304 110.537 174.92 109.236 174.92ZM121.718 165.256H125.718V189H121.718V165.256ZM156.068 177.352C157.305 177.757 158.286 178.44 159.012 179.4C159.737 180.339 160.1 181.512 160.1 182.92C160.1 184.861 159.353 186.365 157.86 187.432C156.366 188.477 154.19 189 151.332 189H140.196V166.6H150.692C153.337 166.6 155.374 167.123 156.804 168.168C158.233 169.192 158.948 170.611 158.948 172.424C158.948 173.533 158.692 174.515 158.18 175.368C157.668 176.221 156.964 176.883 156.068 177.352ZM144.356 169.864V176.04H150.244C151.694 176.04 152.804 175.784 153.572 175.272C154.361 174.739 154.756 173.971 154.756 172.968C154.756 171.944 154.361 171.176 153.572 170.664C152.804 170.131 151.694 169.864 150.244 169.864H144.356ZM151.076 185.736C154.297 185.736 155.908 184.659 155.908 182.504C155.908 180.349 154.297 179.272 151.076 179.272H144.356V185.736H151.076ZM180.699 171.912V189H176.891V186.824C176.251 187.592 175.451 188.189 174.491 188.616C173.531 189.021 172.497 189.224 171.387 189.224C169.105 189.224 167.302 188.595 165.979 187.336C164.678 186.056 164.027 184.168 164.027 181.672V171.912H168.027V181.128C168.027 182.664 168.369 183.816 169.051 184.584C169.755 185.331 170.747 185.704 172.027 185.704C173.457 185.704 174.587 185.267 175.419 184.392C176.273 183.496 176.699 182.216 176.699 180.552V171.912H180.699ZM202.673 165.256V189H198.833V186.792C198.171 187.603 197.35 188.211 196.369 188.616C195.409 189.021 194.342 189.224 193.169 189.224C191.526 189.224 190.043 188.861 188.721 188.136C187.419 187.411 186.395 186.387 185.649 185.064C184.902 183.72 184.529 182.184 184.529 180.456C184.529 178.728 184.902 177.203 185.649 175.88C186.395 174.557 187.419 173.533 188.721 172.808C190.043 172.083 191.526 171.72 193.169 171.72C194.299 171.72 195.334 171.912 196.273 172.296C197.211 172.68 198.011 173.256 198.673 174.024V165.256H202.673ZM193.649 185.8C194.609 185.8 195.473 185.587 196.241 185.16C197.009 184.712 197.617 184.083 198.065 183.272C198.513 182.461 198.737 181.523 198.737 180.456C198.737 179.389 198.513 178.451 198.065 177.64C197.617 176.829 197.009 176.211 196.241 175.784C195.473 175.336 194.609 175.112 193.649 175.112C192.689 175.112 191.825 175.336 191.057 175.784C190.289 176.211 189.681 176.829 189.233 177.64C188.785 178.451 188.561 179.389 188.561 180.456C188.561 181.523 188.785 182.461 189.233 183.272C189.681 184.083 190.289 184.712 191.057 185.16C191.825 185.587 192.689 185.8 193.649 185.8ZM224.641 165.256V189H220.801V186.792C220.14 187.603 219.319 188.211 218.337 188.616C217.377 189.021 216.311 189.224 215.137 189.224C213.495 189.224 212.012 188.861 210.689 188.136C209.388 187.411 208.364 186.387 207.617 185.064C206.871 183.72 206.497 182.184 206.497 180.456C206.497 178.728 206.871 177.203 207.617 175.88C208.364 174.557 209.388 173.533 210.689 172.808C212.012 172.083 213.495 171.72 215.137 171.72C216.268 171.72 217.303 171.912 218.241 172.296C219.18 172.68 219.98 173.256 220.641 174.024V165.256H224.641ZM215.617 185.8C216.577 185.8 217.441 185.587 218.209 185.16C218.977 184.712 219.585 184.083 220.033 183.272C220.481 182.461 220.705 181.523 220.705 180.456C220.705 179.389 220.481 178.451 220.033 177.64C219.585 176.829 218.977 176.211 218.209 175.784C217.441 175.336 216.577 175.112 215.617 175.112C214.657 175.112 213.793 175.336 213.025 175.784C212.257 176.211 211.649 176.829 211.201 177.64C210.753 178.451 210.529 179.389 210.529 180.456C210.529 181.523 210.753 182.461 211.201 183.272C211.649 184.083 212.257 184.712 213.025 185.16C213.793 185.587 214.657 185.8 215.617 185.8ZM245.874 171.912L237.874 190.376C237.127 192.232 236.221 193.533 235.154 194.28C234.087 195.048 232.797 195.432 231.282 195.432C230.429 195.432 229.586 195.293 228.754 195.016C227.922 194.739 227.239 194.355 226.706 193.864L228.306 190.92C228.69 191.283 229.138 191.571 229.65 191.784C230.183 191.997 230.717 192.104 231.25 192.104C231.954 192.104 232.53 191.923 232.978 191.56C233.447 191.197 233.874 190.589 234.258 189.736L234.546 189.064L227.09 171.912H231.25L236.626 184.552L242.034 171.912H245.874Z" fill="#041562"/>
</g>
<defs>
<clipPath id="clip0_2_2">
<rect width="277" height="205" fill="white"/>
</clipPath>
</defs>
</svg>
